<svg aria-hidden="true" style="position: absolute; width: 0; height: 0; overflow: hidden;" version="1.1" xmlns="http://www.w3.org/2000/svg" xmlns:xlink="http://www.w3.org/1999/xlink">
<defs>
<symbol id="icon-play" viewBox="0 0 28 32">
<path  d="M26.813 16.104l-26 15.011v-30.022l26 15.011z"></path>
</symbol>
<symbol id="icon-instagram" viewBox="0 0 32 32">
<path  opacity="0.3" d="M0 32h32v-32h-32v32zM28.444 5.333c0 0.981-0.796 1.778-1.778 1.778s-1.778-0.796-1.778-1.778c0-0.981 0.796-1.778 1.778-1.778s1.778 0.796 1.778 1.778zM16 7.111c4.908 0 8.889 3.98 8.889 8.889s-3.98 8.889-8.889 8.889c-4.908 0-8.889-3.98-8.889-8.889s3.98-8.889 8.889-8.889zM10.667 16c0 2.946 2.388 5.333 5.333 5.333s5.333-2.388 5.333-5.333c0-2.945-2.388-5.333-5.333-5.333s-5.333 2.388-5.333 5.333z"></path>
</symbol>
<symbol id="icon-linkedin" viewBox="0 0 32 32">
<path  opacity="0.3" d="M3.556 0h24.889c1.964 0 3.556 1.591 3.556 3.556v24.889c0 1.964-1.591 3.556-3.556 3.556h-24.889c-1.964 0-3.556-1.591-3.556-3.556v-24.889c0-1.964 1.591-3.556 3.556-3.556zM6.18 22.645c0 1.239 1.004 2.244 2.244 2.244s2.244-1.004 2.244-2.242v-7.959c0-1.239-1.004-2.244-2.244-2.244-1.237 0-2.242 1.004-2.244 2.242v7.959zM8.342 10.163c-1.371 0-2.286-0.914-2.286-2.133s0.914-2.133 2.437-2.133c1.371 0 2.286 0.914 2.286 2.133s-0.914 2.133-2.437 2.133zM22.325 22.718c0 1.198 0.972 2.171 2.171 2.171s2.171-0.972 2.171-2.171v-4.631c0-3.906-1.737-5.643-3.904-5.643-3.406 0-3.908 2.244-3.908 2.244 0-1.239-1.004-2.244-2.244-2.244s-2.244 1.004-2.244 2.244v8.030c0 1.198 0.972 2.171 2.171 2.171h0.144c1.198 0 2.171-0.972 2.171-2.171v-4.631c0-2.025 1.447-2.087 1.881-2.087s1.591 0.206 1.591 2.087v4.631z"></path>
</symbol>
<symbol id="icon-twitter" viewBox="0 0 32 32">
<path  opacity="0.3" d="M7.111 0h17.778c3.927 0 7.111 3.184 7.111 7.111v17.778c0 3.927-3.184 7.111-7.111 7.111h-17.778c-3.927 0-7.111-3.184-7.111-7.111v-17.778c0-3.927 3.184-7.111 7.111-7.111zM24.978 12.19v-0.61c0.763-0.61 1.524-1.371 2.137-2.288-0.914 0.459-1.676 0.61-2.59 0.763 0.914-0.608 1.676-1.371 1.98-2.437-0.763 0.457-1.676 0.914-2.743 1.067-0.763-0.914-1.98-1.371-3.2-1.371-2.439 0-4.42 1.982-4.42 4.42 0 0.252 0.046 0.457 0.088 0.642 0.034 0.151 0.065 0.288 0.065 0.424-3.657-0.151-6.857-1.98-8.99-4.571-0.457 0.61-0.61 1.371-0.61 2.133 0 1.524 0.761 2.743 1.98 3.81-0.761-0.153-1.371-0.306-1.98-0.61 0 2.133 1.524 3.81 3.504 4.267-0.457 0.153-0.763 0.153-1.22 0.153-0.063 0-0.153-0.026-0.258-0.057-0.148-0.044-0.327-0.096-0.504-0.096 0.61 1.676 2.133 3.047 4.114 3.047-1.524 1.067-3.506 1.829-5.486 1.829h-1.067c1.98 1.218 4.267 1.98 6.704 1.98 8.076 0 12.496-6.706 12.496-12.496z"></path>
</symbol>
<symbol id="icon-facebook" viewBox="0 0 32 32">
<path  opacity="0.3" d="M29.091 0h-26.182c-1.607 0-2.909 1.302-2.909 2.909v26.182c0 1.607 1.302 2.909 2.909 2.909h14.545v-13.091h-4.364v-4.364h4.364v-2.343c0-4.436 2.161-6.384 5.849-6.384 1.766 0 2.7 0.131 3.142 0.191v4.173h-2.515c-1.565 0-2.112 0.826-2.112 2.499v1.865h4.588l-0.623 4.364h-3.965v13.091h7.273c1.607 0 2.909-1.302 2.909-2.909v-26.182c0-1.607-1.303-2.909-2.909-2.909z"></path>
</symbol>
<symbol id="icon-medal" viewBox="0 0 25 32">
<path  d="M12.406 5.306c-3.972 0.007-7.209 3.244-7.216 7.216 0.007 3.971 3.244 7.208 7.216 7.215 3.971-0.007 7.209-3.244 7.215-7.215-0.007-3.972-3.244-7.208-7.216-7.215h0.001zM12.406 21.122c-4.741 0-8.599-3.858-8.599-8.599 0.001-4.742 3.858-8.6 8.599-8.6s8.599 3.858 8.6 8.6c-0.001 4.741-3.86 8.599-8.6 8.599zM12.406 22.063c0.109 0 0.218 0.027 0.315 0.077l2.621 1.343 1.6-2.474c0.12-0.187 0.324-0.305 0.546-0.316l2.942-0.148 0.147-2.941c0.011-0.222 0.129-0.426 0.315-0.547l2.475-1.6-1.344-2.621c-0.101-0.199-0.101-0.434 0.001-0.631l1.342-2.622-2.474-1.599c-0.187-0.12-0.304-0.324-0.315-0.547l-0.147-2.941-2.942-0.148c-0.222-0.011-0.426-0.129-0.546-0.316l-1.6-2.474-2.622 1.344c-0.096 0.050-0.205 0.075-0.315 0.075s-0.219-0.026-0.316-0.075l-2.622-1.344-1.599 2.474c-0.12 0.187-0.324 0.305-0.546 0.316l-2.942 0.147-0.147 2.943c-0.013 0.222-0.13 0.426-0.317 0.546l-2.474 1.599 1.343 2.622c0.101 0.197 0.101 0.433 0 0.631l-1.344 2.62 2.474 1.601c0.187 0.121 0.304 0.324 0.317 0.546l0.147 2.941 2.942 0.148c0.222 0.012 0.426 0.129 0.546 0.316l1.599 2.474 2.623-1.343c0.096-0.050 0.205-0.076 0.315-0.076zM5.464 27.031c0.188 0.021 0.356 0.118 0.471 0.272l1.949 2.603 3.327-5.762-1.667 0.855c-0.097 0.050-0.206 0.077-0.315 0.077-0.236 0-0.454-0.119-0.582-0.317l-1.745-2.701-1.963-0.098-2.706 4.686 3.231 0.386zM16.929 29.908l1.948-2.604c0.115-0.154 0.283-0.251 0.472-0.272l3.23-0.386-2.704-4.687-1.965 0.099-1.746 2.702c-0.128 0.198-0.345 0.316-0.581 0.316-0.109 0-0.218-0.026-0.314-0.076l-1.668-0.854 3.327 5.763zM7.957 31.853c-0.217 0-0.424-0.103-0.554-0.278l-2.4-3.207-3.976-0.475c-0.231-0.028-0.431-0.168-0.537-0.376-0.104-0.209-0.097-0.454 0.020-0.656l2.912-5.044c-0.224-0.108-0.378-0.327-0.391-0.577l-0.159-3.214-2.702-1.747c-0.3-0.194-0.403-0.579-0.24-0.897l1.467-2.862-1.468-2.863c-0.162-0.317-0.059-0.702 0.241-0.895l2.702-1.748 0.159-3.212c0.020-0.356 0.302-0.638 0.658-0.656l3.213-0.163 1.746-2.699c0.128-0.199 0.345-0.317 0.581-0.317 0.109 0 0.218 0.026 0.315 0.076l2.863 1.466 2.863-1.466c0.096-0.050 0.205-0.076 0.313-0.076 0.236 0 0.454 0.119 0.582 0.317l1.746 2.699 3.215 0.163c0.354 0.017 0.637 0.299 0.656 0.655l0.16 3.213 2.702 1.748c0.3 0.194 0.403 0.578 0.24 0.895l-1.467 2.863 1.467 2.862c0.162 0.317 0.059 0.702-0.24 0.897l-2.702 1.747-0.16 3.213c-0.014 0.252-0.168 0.47-0.391 0.579l2.913 5.043c0.116 0.202 0.122 0.447 0.019 0.656s-0.305 0.349-0.536 0.377l-3.979 0.475-2.397 3.207c-0.133 0.176-0.335 0.278-0.554 0.278-0.274-0.014-0.482-0.143-0.6-0.346l-3.85-6.669-3.849 6.669c-0.117 0.203-0.326 0.332-0.559 0.345l-0.041 0.001z"></path>
</symbol>
<symbol id="icon-people2" viewBox="0 0 31 32">
<path  d="M15.264 11.965c-1.471 0-2.668 1.197-2.668 2.668s1.197 2.668 2.668 2.668 2.668-1.197 2.668-2.668c0-1.471-1.197-2.668-2.668-2.668zM15.263 18.672c-2.226 0-4.037-1.811-4.037-4.038s1.811-4.037 4.037-4.037c2.226 0 4.037 1.811 4.037 4.037s-1.811 4.038-4.037 4.038z"></path>
<path  d="M19.641 24.887c0.304 0 0.552 0.247 0.552 0.552v5.065h1.813v-5.088c0-2.213-1.799-4.014-4.009-4.014l-5.503-0.019c-2.215 0.001-4.017 1.803-4.017 4.019v5.102h1.813v-5.065c0-0.305 0.247-0.552 0.552-0.552s0.551 0.247 0.551 0.552v5.065h7.697v-5.065c0-0.305 0.248-0.552 0.552-0.552zM8.436 31.874c-0.732 0-1.328-0.596-1.328-1.328v-5.143c0-2.971 2.416-5.388 5.387-5.388l5.504 0.018c2.965 0.001 5.377 2.417 5.377 5.384v5.144c0 0.736-0.584 1.314-1.328 1.314h-13.613z"></path>
<path  d="M8.133 1.369c-1.471 0-2.668 1.197-2.668 2.668s1.197 2.668 2.668 2.668c1.471 0 2.668-1.197 2.668-2.668s-1.197-2.668-2.668-2.668zM8.134 8.075c-2.227 0-4.037-1.811-4.037-4.037s1.811-4.038 4.037-4.038c2.226 0 4.037 1.811 4.037 4.038s-1.811 4.037-4.037 4.037z"></path>
<path  d="M1.328 21.154c-0.732 0-1.328-0.596-1.328-1.328v-5.144c0-2.971 2.416-5.388 5.387-5.388l5.509 0.001c0.396 0 0.775 0.041 1.161 0.127 0.369 0.082 0.602 0.448 0.52 0.817-0.069 0.311-0.35 0.536-0.667 0.536-0.051 0-0.101-0.005-0.149-0.017-0.287-0.063-0.57-0.094-0.863-0.094l-5.51-0.001c-2.216 0-4.018 1.802-4.018 4.018v5.102h1.813v-5.065c0-0.305 0.247-0.552 0.552-0.552s0.552 0.247 0.552 0.552v5.065h2.81c0.377 0 0.684 0.307 0.684 0.685s-0.307 0.685-0.684 0.685h-5.769z"></path>
<path  d="M22.37 1.369c-1.471 0-2.668 1.197-2.668 2.668s1.197 2.668 2.668 2.668c1.471 0 2.668-1.197 2.668-2.668s-1.197-2.668-2.668-2.668zM22.371 8.075c-2.227 0-4.037-1.811-4.037-4.037s1.811-4.038 4.037-4.038c2.226 0 4.037 1.811 4.037 4.038s-1.811 4.037-4.037 4.037z"></path>
<path  d="M23.391 21.154c-0.377 0-0.685-0.307-0.685-0.685s0.307-0.685 0.685-0.685h2.81v-5.065c0-0.305 0.247-0.552 0.552-0.552s0.552 0.247 0.552 0.552v5.065h1.813v-5.102c0-1.071-0.419-2.079-1.179-2.839s-1.768-1.179-2.839-1.179l-5.505 0.002c-0.294 0-0.563 0.030-0.85 0.093-0.050 0.011-0.1 0.017-0.15 0.017-0.318 0-0.599-0.226-0.668-0.536-0.082-0.369 0.152-0.736 0.52-0.817 0.381-0.085 0.756-0.126 1.147-0.126l5.505-0.002c1.437 0 2.789 0.561 3.808 1.58s1.58 2.371 1.58 3.808v5.145c0 0.732-0.595 1.328-1.328 1.328h-5.768z"></path>
</symbol>
<symbol id="icon-people" viewBox="0 0 33 32">
<path  d="M31.867 31.425c-0.236 0-0.471-0.093-0.65-0.277l-3.944-4.79c-0.36-0.37-0.36-0.969 0-1.338s0.941-0.37 1.301 0l3.944 4.79c0.36 0.37 0.36 0.968 0 1.338-0.179 0.185-0.415 0.277-0.651 0.277z"></path>
<path  d="M17.015 1.806c-8.788 0-15.165 6.225-15.165 14.802 0 7.2 6.803 13.058 15.165 13.058 7 0 13.377-6.224 13.377-13.058 0-8.161-6.001-14.802-13.377-14.802zM17.016 31.473c-9.383 0-17.016-6.668-17.016-14.865 0-9.624 7.157-16.609 17.016-16.609 8.397 0 15.228 7.451 15.228 16.609 0 7.78-7.259 14.865-15.228 14.865z"></path>
<path  d="M16.276 9.227c-1.748 0-3.17 1.364-3.17 3.042s1.422 3.041 3.17 3.041c1.747 0 3.169-1.363 3.169-3.041s-1.422-3.042-3.169-3.042zM16.276 17.073c-2.761 0-5.008-2.156-5.008-4.805s2.247-4.806 5.008-4.806c2.761 0 5.007 2.155 5.007 4.806s-2.246 4.805-5.007 4.805zM4.521 20.506c-0.507 0-0.919-0.395-0.919-0.882 0-2.379 2.017-4.315 4.497-4.315 1.726 0 3.273 0.924 4.036 2.411 0.224 0.437 0.037 0.966-0.419 1.181s-1.006 0.035-1.23-0.402c-0.451-0.879-1.367-1.426-2.387-1.426-1.466 0-2.659 1.145-2.659 2.551 0 0.487-0.412 0.882-0.919 0.882z"></path>
<path  d="M23.44 24.343c-0.507 0-0.919-0.422-0.919-0.941 0-3.52-2.796-6.385-6.234-6.385s-6.234 2.864-6.234 6.385c0 0.519-0.412 0.941-0.919 0.941s-0.919-0.422-0.919-0.941c0-4.558 3.621-8.267 8.072-8.267s8.072 3.708 8.072 8.267c0 0.519-0.412 0.941-0.919 0.941z"></path>
<path  d="M24.359 12.283c-0.644 0-1.167 0.523-1.167 1.165s0.524 1.166 1.167 1.166c0.644 0 1.167-0.523 1.167-1.166s-0.524-1.165-1.167-1.165zM24.359 16.518c-1.696 0-3.075-1.377-3.075-3.070s1.379-3.069 3.075-3.069c1.696 0 3.075 1.376 3.075 3.069s-1.379 3.070-3.075 3.070z"></path>
<path  d="M8.105 13.081c-0.621 0-1.126 0.489-1.126 1.090s0.505 1.091 1.126 1.091c0.621 0 1.127-0.49 1.127-1.091s-0.506-1.090-1.127-1.090zM8.105 17.042c-1.635 0-2.965-1.288-2.965-2.871s1.33-2.87 2.965-2.87c1.635 0 2.966 1.287 2.966 2.87s-1.331 2.871-2.966 2.871zM28.051 20.508c-0.508 0-0.92-0.399-0.92-0.89 0-1.42-1.194-2.576-2.661-2.576-1.021 0-1.937 0.552-2.389 1.44-0.224 0.442-0.775 0.624-1.231 0.406-0.456-0.217-0.644-0.751-0.419-1.192 0.763-1.501 2.311-2.434 4.039-2.434 2.482 0 4.5 1.954 4.5 4.357 0 0.491-0.412 0.89-0.92 0.89z"></path>
</symbol>
<symbol id="icon-cuvva" viewBox="0 0 32 32">
<path  d="M32 16.050c-0.010 3.165-0.959 6.257-2.726 8.883s-4.274 4.669-7.202 5.87c-2.929 1.201-6.148 1.507-9.25 0.878s-5.948-2.163-8.178-4.41c-2.23-2.247-3.743-5.104-4.349-8.211s-0.276-6.324 0.948-9.243c1.223-2.919 3.285-5.41 5.924-7.158s5.738-2.673 8.903-2.659c4.24 0.019 8.299 1.719 11.286 4.729s4.657 7.081 4.644 11.321zM16 15.97c3.26 0 6.53 0 9.79 0 0.56 0 0.78-0.11 0.74-0.73-0.059-1.27-0.375-2.516-0.93-3.66-0.868-1.95-2.318-3.584-4.151-4.676s-3.961-1.59-6.089-1.424c-2.526 0.169-4.907 1.236-6.716 3.007s-2.923 4.131-3.144 6.653c0 0.62 0.14 0.85 0.8 0.85 3.2 0.010 6.45 0.010 9.69 0.010l0.010-0.030z"></path>
</symbol>
<symbol id="icon-pantry" viewBox="0 0 32 32">
<path  d="M31.589 15.605c-1.039-1.74-2.186-3.412-3.438-5.006l-0.031-0.040-0.011-0.012c-0.063-0.079-0.226-0.28-0.287-0.359-0.57-0.781-1.24-7.039-1.318-7.5-0.093-0.543-0.249-1.108-1.036-1.193-0.639-0.067-1.585-0.173-2.63-0.226-0.483-0.024-0.734 0.236-0.86 0.475-0.087 0.163-0.125 0.35-0.129 0.535-0.014 0.802 0.003 1.194 0.003 1.293 0 0.011-0.001 0.022-0.003 0.033-0.011 0.056-0.041 0.102-0.082 0.138-0.090 0.075-0.222 0.067-0.314-0.004-0.496-0.377-3.081-2.338-4.508-3.224-0.067-0.039-0.136-0.075-0.207-0.106-0.521-0.234-1.13-0.242-1.626 0.044-0.034 0.020-0.069 0.041-0.102 0.064-0.471 0.295-8.524 4.868-14.62 15.042 0 0-0.378 0.531-0.095 1.028 0.275 0.572 2.937 0.734 3.363 0.783 0.481 0.050 0.478 0.444 0.478 0.444 0.050 4.175 0.123 6.203 0.803 13.284 0 0 0.109 0.739 0.84 0.775 0.295 0.015 1.391-0.049 4.314-0.114 0.112 0.012 0.211-0.070 0.223-0.18 0.001-0.016 0.001-0.034-0.001-0.050-0.279-2.89-0.369-5.391-0.376-5.536-0.007-0.103-0.101-0.259-0.197-0.298-1.078-0.617-1.719-1.696-1.729-2.938-0.082-5.722 0.268-10.114 0.268-10.114s0.034-0.61 0.569-0.561c0.535 0.049 0.5 0.648 0.5 0.648-0.192 2.464-0.267 6.907-0.267 6.907s0 0.844 0.809 0.843c0.809-0.001 0.809-0.843 0.809-0.843-0.024-3.477 0.268-6.97 0.268-6.97s0-0.592 0.57-0.592c0.31 0 0.429 0.214 0.475 0.385 0.024 0.093 0.030 0.188 0.022 0.282-0.237 3.010-0.263 6.89-0.263 6.89s0 0.844 0.809 0.843c0.809-0.001 0.806-0.912 0.806-0.912-0.014-2.882 0.27-6.894 0.27-6.894 0.024-0.312 0.181-0.584 0.562-0.588 0.476 0.015 0.512 0.471 0.504 0.588-0.253 3.129-0.26 7.924-0.249 9.978 0.038 1.236-0.59 2.397-1.643 3.044-0.097 0.065-0.15 0.18-0.136 0.295 0.067 1.902 0.226 4.012 0.364 5.523 0.005 0.102 0.084 0.184 0.187 0.193 0.807 0 2.358-0.009 3.331-0.009 1.562 0 2.186 0.009 3.333 0.026 0.129 0 0.191-0.095 0.201-0.226 0.295-2.738 0.399-4.72 0.414-4.893 0.018-0.195-0.223-0.233-0.223-0.233-0.358-0.049-1.197-0.148-1.91-0.265s-0.739-0.928-0.739-0.928c-0.602-8.54 3.905-13.863 3.905-13.863s0.449-0.591 1.070-0.359c0.549 0.204 0.694 1.788 0.701 1.881 0.603 7.071-0.078 15.316-0.471 18.682-0.015 0.137 0.049 0.246 0.173 0.274 0.155 0.026 2.862 0.116 3.108 0.089 0.44-0.045 0.792-0.38 0.86-0.817 0.958-6.615 0.813-13.251 0.813-13.251 0.020-0.237 0.207-0.423 0.444-0.444l2.594-0.278c0.34-0.050 0.629-0.185 0.78-0.478 0.154-0.32 0.143-0.696-0.038-1.001z"></path>
</symbol>
<symbol id="icon-linnworks" viewBox="0 0 29 32">
<path  d="M19.511 20.191h1.939l0.176-0.176v-2.468l0.264-0.264h2.468l0.176-0.176v-1.939l-0.176-0.176h-2.468l-0.264-0.264v-2.468l-0.176-0.176h-1.939l-0.176 0.176v2.468l-0.264 0.264h-2.468l-0.176 0.176v1.939l0.176 0.176h2.468l0.264 0.264v2.468l0.176 0.176z"></path>
<path  d="M4.177 15.168v1.939l0.264 0.176h7.667l0.264-0.176v-1.939l-0.264-0.176h-7.667l-0.264 0.176z"></path>
<path  d="M26.736 21.866c-0.176 0.088-0.264 0.088-0.441 0.176-0.264 0.529-0.529 1.058-0.881 1.498-0.441 0.705-1.058 1.322-1.586 1.939-0.617 0.617-1.234 1.146-1.939 1.586s-1.498 0.881-2.291 1.234c-1.674 0.705-3.349 1.057-5.199 1.057s-3.525-0.353-5.199-1.057c-0.793-0.352-1.586-0.705-2.291-1.234-0.705-0.441-1.322-1.058-1.939-1.586-0.617-0.617-1.146-1.234-1.586-1.939-0.352-0.441-0.617-0.969-0.881-1.498-0.176-0.088-0.264-0.088-0.441-0.176l-1.763 0.793c-0.088 0.176-0.088 0.352-0.176 0.529 2.556 5.199 8.020 8.813 14.188 8.813s11.633-3.613 14.188-8.813c-0.088-0.176-0.088-0.264-0.176-0.441l-1.586-0.881z"></path>
<path  d="M2.061 10.409c0.176-0.088 0.264-0.088 0.441-0.176 0.264-0.529 0.529-1.058 0.881-1.498 0.441-0.705 1.058-1.41 1.586-2.027 0.617-0.529 1.322-1.146 2.027-1.586s1.498-0.881 2.291-1.234c1.674-0.705 3.349-1.058 5.199-1.058s3.525 0.353 5.199 1.058c0.793 0.353 1.586 0.705 2.291 1.234 0.705 0.441 1.322 1.058 1.939 1.586 0.617 0.617 1.146 1.234 1.586 1.939 0.352 0.441 0.617 0.969 0.881 1.498 0.176 0.088 0.264 0.088 0.441 0.176l1.762-0.793c0.088-0.176 0.088-0.264 0.176-0.441-2.732-5.199-8.108-8.813-14.365-8.813s-11.633 3.613-14.277 8.813c0.088 0.176 0.088 0.264 0.176 0.441l1.763 0.881z"></path>
</symbol>
<symbol id="icon-energy" viewBox="0 0 43 32">
<path  d="M5.524 14.613c0.212 2.789 2.373 3.743 4.851 3.743 2.089 0 3.435-0.741 3.435-1.977 0-1.306-1.31-1.518-3.010-1.836l-4.072-0.706c-3.647-0.671-6.197-2.718-6.197-6.6 0-4.518 3.541-7.236 9.1-7.236 6.162 0 9.49 3 9.597 7.942l-5.524 0.106c-0.177-2.294-1.841-3.353-4.143-3.353-1.983 0-3.116 0.776-3.116 2.012 0 1.024 0.85 1.412 2.231 1.657l4.214 0.741c4.674 0.812 6.799 3.248 6.799 6.883 0 4.73-4.108 7.095-9.313 7.095-6.055 0-10.375-2.93-10.375-8.295l5.523-0.177z"></path>
<path  d="M31.798 23.084c-6.48 0-11.58-4.695-11.58-11.542s5.099-11.542 11.58-11.542c6.481 0 11.579 4.695 11.579 11.542s-5.099 11.542-11.579 11.542zM31.798 5.294c-3.293 0-5.382 2.471-5.382 6.247s2.089 6.247 5.382 6.247c3.293 0 5.382-2.471 5.382-6.247s-2.089-6.247-5.382-6.247z"></path>
<path  d="M12.299 28.505v-4.163h1.867v7.515h-1.627l-3.255-4.449v4.449h-1.867v-7.515h1.94l2.942 4.163z"></path>
<path  d="M26.313 31.857c-0.215-0.45-0.322-0.945-0.311-1.443-0.062-0.859-0.431-1.049-1.113-1.049h-1.354v2.493h-1.998v-7.515h3.805c1.95 0 2.92 0.921 2.92 2.385 0.032 0.465-0.116 0.925-0.414 1.284s-0.723 0.591-1.187 0.648c0.361 0.042 0.694 0.215 0.937 0.485s0.377 0.62 0.379 0.982c0.108 1.121 0.143 1.455 0.395 1.729h-2.058zM24.985 27.802c0.862 0 1.293-0.215 1.293-0.906 0-0.608-0.431-0.93-1.293-0.93h-1.448v1.837h1.448z"></path>
<path  d="M28.652 28.1c-0.018-0.515 0.071-1.028 0.259-1.508s0.474-0.916 0.839-1.281c0.364-0.365 0.8-0.653 1.28-0.844s0.994-0.282 1.511-0.268c2.216 0 3.506 1.205 3.674 3.078l-1.974 0.072c-0.018-0.197-0.076-0.389-0.169-0.564s-0.22-0.33-0.374-0.455c-0.154-0.126-0.331-0.22-0.521-0.276s-0.39-0.076-0.587-0.055c-1.185 0-1.843 0.823-1.843 2.099 0 1.312 0.694 2.183 1.998 2.183 0.322 0.019 0.642-0.053 0.925-0.207s0.517-0.384 0.675-0.664h-1.662v-1.455h3.59v3.901h-1.771v-0.835c-0.246 0.341-0.578 0.611-0.963 0.783s-0.808 0.239-1.227 0.195c-2.080 0.001-3.66-1.573-3.66-3.899z"></path>
<path  d="M41.18 24.342h2.19l-2.894 4.664v2.851h-1.974v-2.851l-2.894-4.664h2.262l1.699 2.708 1.611-2.708z"></path>
<path  d="M20.785 30.187h-3.829v-1.3h2.955v-1.646h-2.955v-1.227h3.829v-1.67h-5.827v7.513h5.827v-1.67z"></path>
<path  d="M6.635 30.187h-3.829v-1.3h2.955v-1.646h-2.955v-1.227h3.829v-1.67h-5.827v7.513h5.827v-1.67z"></path>
</symbol>
<symbol id="icon-redscan" viewBox="0 0 33 32">
<path  d="M26.775 4.597l1.144 6.125c0.952 0.018 1.717 0.768 1.717 1.69 0 0.551-0.272 1.038-0.693 1.348l2.809 5.574c0.104-0.020 0.212-0.031 0.322-0.031 0.164 0 0.319 0.031 0.468 0.073 0.262-1.137 0.395-2.299 0.397-3.466 0-4.711-2.121-8.942-5.489-11.856-0.172 0.238-0.406 0.425-0.675 0.542zM14.817 3.836c0.243-0.653 0.889-1.121 1.647-1.121 0.76 0 1.405 0.468 1.649 1.121l6.36-0.901c0.038-0.282 0.155-0.536 0.323-0.75-2.443-1.387-5.288-2.185-8.325-2.185-3.112 0-5.94 0.795-8.344 2.155 0.185 0.224 0.304 0.495 0.344 0.782l6.346 0.899zM24.852 24.293l5.629-3.007c-0.034-0.128-0.052-0.26-0.052-0.392 0-0.532 0.269-1 0.683-1.29l-2.797-5.551c-0.142 0.034-0.287 0.052-0.433 0.053-0.066 0-0.132-0.005-0.196-0.011l-3.306 9.822c0.179 0.098 0.34 0.224 0.471 0.376l0 0zM1.174 19.333l2.812-5.574c-0.422-0.31-0.696-0.798-0.696-1.35 0-0.926 0.767-1.676 1.721-1.693l1.141-6.127c-0.274-0.122-0.51-0.315-0.682-0.561-3.413 2.967-5.471 7.274-5.471 11.882 0 1.191 0.14 2.35 0.397 3.467 0.151-0.047 0.308-0.072 0.466-0.073 0.108 0 0.211 0.011 0.311 0.029zM5.043 14.103c-0.148 0-0.293-0.018-0.428-0.053l-2.799 5.549c0.42 0.289 0.695 0.761 0.695 1.296 0 0.138-0.019 0.272-0.055 0.401l5.593 2.996c0.132-0.151 0.293-0.278 0.474-0.376l-3.284-9.823c-0.065 0.007-0.13 0.011-0.195 0.011v-0zM21.8 25.053c0.064-0.302 0.211-0.58 0.424-0.802l-5.085-6.716c-0.211 0.092-0.438 0.139-0.668 0.138-0.228 0-0.443-0.044-0.64-0.127l-5.15 6.712c0.206 0.221 0.354 0.493 0.416 0.794h10.702zM14.871 5.113c-0.090-0.191-0.143-0.398-0.154-0.609l-6.301-0.893c-0.208 0.652-0.834 1.126-1.577 1.126-0.001 0-0.002-0.001-0.005-0.001l-1.137 6.102c0.199 0.078 0.383 0.191 0.542 0.334l8.631-6.059zM30.792 21.89l-5.601 2.992c0.051 0.16 0.081 0.331 0.081 0.508 0 0.936-0.785 1.694-1.755 1.694-0.375 0-0.722-0.116-1.008-0.31l-4.631 4.226c0.139 0.224 0.22 0.479 0.234 0.742 5.996-0.574 11.045-4.256 13.402-9.354-0.281-0.098-0.53-0.271-0.721-0.499v-0zM21.8 25.728h-10.702c-0.041 0.197-0.119 0.385-0.229 0.553l4.666 4.232c0.276-0.185 0.601-0.283 0.933-0.283 0.347 0 0.668 0.104 0.933 0.28l4.63-4.225c-0.108-0.169-0.189-0.357-0.23-0.558zM14.825 16.081c0-0.056 0.003-0.113 0.009-0.17l-8.277-2.65c-0.16 0.262-0.386 0.478-0.656 0.624l3.283 9.822c0.321-0.035 0.645 0.017 0.939 0.151l5.138-6.7c-0.28-0.289-0.436-0.675-0.436-1.077zM17.888 15.274l8.257-2.647c-0.010-0.071-0.015-0.142-0.016-0.213 0-0.247 0.057-0.482 0.156-0.694l-8.636-6.062c-0.236 0.209-0.525 0.352-0.835 0.413l0.004 8.458c0.22 0.045 0.428 0.134 0.612 0.262s0.34 0.293 0.457 0.484h0zM26.368 13.264l-8.259 2.647c0.007 0.056 0.011 0.113 0.011 0.17 0 0.405-0.158 0.775-0.418 1.055l5.083 6.717c0.292-0.131 0.614-0.181 0.932-0.145l3.306-9.818c-0.27-0.147-0.496-0.363-0.655-0.626v0zM6.797 12.409c0 0.072-0.006 0.145-0.015 0.216l8.273 2.649c0.118-0.191 0.273-0.355 0.456-0.484s0.392-0.218 0.611-0.263l-0.004-8.456c-0.311-0.060-0.6-0.203-0.837-0.414l-8.638 6.062c0.101 0.216 0.153 0.451 0.154 0.69zM10.393 26.772c-0.298 0.204-0.652 0.313-1.013 0.312-0.968 0-1.753-0.758-1.753-1.694 0-0.177 0.028-0.349 0.081-0.511l-5.565-2.983c-0.19 0.225-0.437 0.395-0.715 0.493 2.356 5.098 7.403 8.779 13.401 9.354 0.014-0.27 0.096-0.522 0.231-0.74l-4.667-4.231zM27.233 10.841l-1.138-6.105c-0.739-0.004-1.361-0.478-1.565-1.128l-6.316 0.896c-0.011 0.211-0.063 0.418-0.154 0.61l8.632 6.059c0.157-0.14 0.338-0.255 0.541-0.332z"></path>
</symbol>
<symbol id="icon-Enghouse" viewBox="0 0 32 32">
<path  d="M23.267 24.894c-1.012 1.024-2.020 2.054-3.037 3.071-1.222 1.221-2.475 2.443-3.687 3.678-0.289 0.295-0.428 0.287-0.715 0-3.948-3.934-7.903-7.862-11.866-11.782-0.637-0.631-1.258-1.278-1.915-1.886-0.279-0.26-0.234-0.388 0.027-0.611 2.857-2.495 6.129-4.176 9.849-4.866 6.839-1.27 12.957 0.328 18.301 4.814 0.333 0.279 0.348 0.423 0.024 0.727-2.367 2.231-4.872 4.252-7.96 5.419-2.945 1.115-5.895 1.069-8.829-0.032-1.182-0.417-2.202-1.196-2.915-2.226-1.096-1.615-0.941-3.614 0.411-5.030 1.203-1.26 2.748-1.832 4.428-2.058 1.233-0.19 2.494-0.080 3.677 0.319 0.701 0.227 1.324 0.647 1.797 1.212 0.884 1.092 0.773 2.53-0.321 3.413-1.333 1.069-2.866 1.391-4.533 1.018-0.541-0.115-1.028-0.405-1.388-0.825-0.353-0.405-0.814-0.458-1.154-0.182s-0.368 0.777 0 1.209c0.676 0.786 1.576 1.173 2.568 1.341 2.025 0.345 3.942 0.040 5.65-1.147 2.269-1.579 2.313-4.24 0.119-5.929-1.425-1.101-3.089-1.432-4.845-1.464-2.4-0.043-4.646 0.498-6.607 1.932-3.174 2.324-3.222 6.198-0.124 8.627 1.568 1.229 3.391 1.819 5.344 2.087 2.508 0.351 5.063 0.076 7.439-0.8 0.082-0.031 0.16-0.092 0.266-0.031z"></path>
<path  d="M0.693 16.571c-0.229-0.12-0.423-0.297-0.565-0.513-0.144-0.191 0.089-0.286 0.192-0.389 4.422-4.393 8.844-8.779 13.266-13.156 0.753-0.745 1.527-1.461 2.261-2.231 0.305-0.33 0.458-0.223 0.721 0.037 2.958 2.959 5.922 5.911 8.893 8.856 2.165 2.148 4.334 4.294 6.505 6.437 0.163 0.162 0.469 0.305 0.133 0.599-0.241 0.214-0.377 0.478-0.786 0.153-3.227-2.546-7.056-4.216-11.117-4.851-4.746-0.794-9.621-0.18-14.023 1.765-1.841 0.807-3.574 1.84-5.159 3.077-0.101 0.076-0.208 0.144-0.315 0.217z"></path>
</symbol>
<symbol id="icon-lendable" viewBox="0 0 146 32">
<path  d="M103.88 9.78c-1.239 0-2.73 0-3.718 0v-9.78h-3.276v30.576c1.313 0.814 4.176 1.439 6.847 1.439 6.051 0 10.995-3.633 10.995-10.812 0-6.888-4.84-11.422-10.847-11.422zM103.615 29.181c-1.108 0-2.789-0.218-3.453-0.581v-15.986c0.988 0 2.051 0 3.497 0 4.177 0 7.689 3.052 7.689 8.487 0 4.927-2.892 8.080-7.732 8.080z"></path>
<path  d="M145.777 20.694c0-6.685-2.848-10.914-8.19-10.914-5.121 0-8.545 4.447-8.545 10.914 0 6.191 3.291 11.306 9.917 11.306 2.361 0 4.914-0.668 6.744-1.889l-1.062-2.34c-1.417 0.814-3.203 1.511-5.151 1.511-4.486 0-6.936-3.124-7.024-7.644h13.297v-0.945h0.014zM132.524 19.386c0.044-3.56 2.052-6.467 5.254-6.467 3.335 0 4.9 2.906 4.943 6.467h-10.197z"></path>
<path  d="M90.967 17.017c0-5.072-2.848-7.005-7.217-7.005h-13.813v-10.013h-3.276v9.606c-0.989 0-2.066 0-3.321 0-6.007 0-10.729 4.534-10.729 11.408 0 7.179 4.767 10.812 10.818 10.812 2.671 0 5.195-0.625 6.508-1.439v-17.933l13.135 0.087c2.627 0 4.619 1.439 4.619 4.665v1.352l-3.881 0.131c-2.14 0.087-3.763 0.32-5.195 1.032-2.14 0.988-3.527 2.921-3.527 5.74 0 4.084 2.863 6.554 6.7 6.554 2.627 0 4.693-1.032 6.331-2.601l0.635 2.587h2.893c-0.266-0.959-0.679-3.488-0.679-7.659v-7.324zM66.676 28.425c-0.989 0.363-1.933 0.581-3.055 0.581-4.855 0-7.615-3.139-7.615-8.080 0-5.435 3.335-8.487 7.512-8.487 1.446 0 2.169 0 3.158 0v15.985zM87.691 26.434c-0.989 1.032-2.819 2.776-5.446 2.776-2.406 0-3.852-1.613-3.852-3.953 0-1.395 0.649-2.601 1.859-3.27 0.93-0.494 2.022-0.77 3.852-0.814l3.586-0.131v5.391z"></path>
<path  d="M5.136 29.064c-1.107 0-1.859-0.494-1.859-2.238v-26.826h-3.276v27.858c0 2.558 1.505 4.127 4.176 4.127 0.974 0 2.199-0.218 3.055-0.625l-0.767-2.616c-0.31 0.145-0.974 0.32-1.328 0.32z"></path>
<path  d="M18.843 9.606c-5.121 0-8.545 4.447-8.545 10.914 0 6.191 3.291 11.306 9.917 11.306 2.361 0 4.914-0.668 6.744-1.889l-1.063-2.34c-1.417 0.814-3.202 1.599-5.151 1.599-4.486 0-6.936-3.037-7.025-7.557h13.326v-1.119c0-6.685-2.863-10.914-8.205-10.914zM13.767 19.386c0.044-3.56 2.051-6.467 5.254-6.467 3.335 0 4.9 2.906 4.944 6.467h-10.198z"></path>
<path  d="M42.386 9.926c-2.715 0-4.944 1.555-7.261 3.531l-0.28-2.485h-3.202v20.999h3.291v-15.898c1.963-1.744 4.324-3.183 6.685-3.183 2.981 0 3.911 2.499 3.911 5.682l0.103 13.413h2.76v-14.605c-0.015-5.348-2.715-7.455-6.007-7.455z"></path>
<path  d="M124.911 28.905c-1.107 0-1.772-0.494-1.772-2.238v-26.667h-2.98v27.887c0 2.558 1.284 4.040 3.955 4.040 0.974 0 2.096-0.276 2.937-0.669l-0.767-2.63c-0.31 0.116-1.019 0.276-1.372 0.276z"></path>
</symbol>
<symbol id="icon-springboard" viewBox="0 0 16 32">
<path  d="M9.319 0.909l4.828 8.11 1.525-0.909-4.83-8.11-1.523 0.909zM6.449 2.615l4.847 8.125 1.522-0.909-4.847-8.125-1.522 0.909zM3.559 4.345l2.888 4.791-4.877-2.735-0.865 1.551 4.832 2.708h-5.537v1.775h5.356l-4.737 2.502 0.826 1.571 4.93-2.604-3.009 4.7 1.492 0.959 5.111-8.014-4.892-8.123-1.517 0.919zM6.153 20.451l4.893 8.121 1.517-0.918-2.889-4.791 4.877 2.734 0.865-1.55-4.832-2.709h5.536v-1.775h-5.356l4.737-2.501-0.825-1.571-4.931 2.604 3.009-4.701-1.491-0.958-5.111 8.016zM3.316 22.161l4.835 8.132 1.522-0.909-4.835-8.132-1.522 0.909zM0.442 23.868l4.837 8.132 1.523-0.91-4.835-8.131-1.525 0.909z"></path>
</symbol>
<symbol id="icon-kaseya" viewBox="0 0 55 32">
<path  d="M17.058 15.296c-0.805 0.245-3.452 7.11-4.842 10.909 2.496 1.724 5.1 3.272 7.502 4.324 4.822 2.109 6.328 1.252 9.322-0.101 2.146-0.969 5.512-3.235 8.46-5.387-3.581-2.351-8.088-5.198-10.667-6.415-4.835-2.287-8.61-3.684-9.776-3.33z"></path>
<path  d="M19.043 11.699c0 0 4.4-2.587 11.457-5.107 3.782-1.35 7.544-2.017 10.222-2.343-1.51-0.427-2.922-0.821-3.987-1.116-3.37-0.929-8.224-2.074-12.288-2.702-0.191 0.973-0.66 2.563-1.842 4.848-1.601 3.085-3.562 6.419-3.562 6.419z"></path>
<path  d="M21.201 0.047c-3.694-0.254-4.26 0.584-4.977 1.084-1.897 1.039-9.759 5.736-13.568 9.055-3.61 3.144-3.008 5.11-1.326 7.087 1.362 1.601 3.749 3.5 7.463 6.406 0.169 0.133 0.34 0.265 0.514 0.4 1.492-3.311 4.742-10.49 6.34-13.856 1.872-3.949 4.416-8.279 5.554-10.176z"></path>
<path  d="M53.496 8.315c-1.29-0.674-2.44-1.037-3.44-1.364-0.506-0.164-1.832-0.555-3.495-1.036-2.947 0.387-7.833 1.124-12.568 2.258-4.903 1.176-13.139 5.175-13.139 5.175s10.411 3.35 20.167 9.020c0.326-0.259 0.627-0.5 0.902-0.725 3.025-2.478 10.71-8.859 12.35-11.649 0.404-0.691 0.062-1.242-0.777-1.68z"></path>
</symbol>
<symbol id="icon-lifebit" viewBox="0 0 24 32">
<path  d="M22.953 23.029c-0.474-0.474-1.036-0.849-1.655-1.105s-1.283-0.387-1.953-0.387h-0.198l-1.826-8.575c0.915-0.322 1.745-0.848 2.428-1.537 0.911-0.903 1.538-2.052 1.805-3.306s0.161-2.559-0.303-3.755c-0.465-1.195-1.269-2.229-2.313-2.974s-2.283-1.168-3.564-1.219c-1.281-0.050-2.55 0.275-3.649 0.935s-1.982 1.628-2.539 2.783c-0.557 1.155-0.765 2.448-0.597 3.719s0.703 2.466 1.54 3.438l-4.588 5.192c-0.524-0.27-1.103-0.415-1.692-0.423-0.817-0.001-1.611 0.273-2.254 0.776s-1.1 1.208-1.296 2.001c-0.196 0.793-0.121 1.629 0.214 2.374s0.909 1.357 1.633 1.737c0.723 0.38 1.553 0.507 2.356 0.361s1.535-0.558 2.078-1.169c0.542-0.611 0.864-1.386 0.914-2.202s-0.175-1.624-0.638-2.297l4.588-5.167c1.082 0.721 2.352 1.108 3.653 1.114 0.178 0 0.331-0.023 0.49-0.023l1.826 8.575c-0.644 0.255-1.228 0.641-1.716 1.133-0.717 0.714-1.206 1.625-1.405 2.617s-0.099 2.021 0.288 2.956c0.386 0.935 1.042 1.735 1.883 2.297s1.83 0.863 2.842 0.863c0.671 0.005 1.335-0.125 1.955-0.381s1.182-0.634 1.653-1.111c0.48-0.472 0.862-1.034 1.124-1.654s0.399-1.285 0.403-1.958c0.004-0.673-0.125-1.34-0.38-1.963s-0.63-1.189-1.104-1.667zM5.182 20.827c-0.175 0.176-0.383 0.316-0.613 0.412s-0.475 0.145-0.724 0.145c-0.248 0-0.495-0.049-0.724-0.145s-0.438-0.236-0.613-0.412c-0.266-0.266-0.448-0.604-0.522-0.973s-0.037-0.751 0.106-1.099c0.143-0.348 0.386-0.645 0.698-0.856s0.679-0.323 1.055-0.325c0.501 0.002 0.982 0.202 1.336 0.557s0.555 0.835 0.557 1.336c0.003 0.252-0.045 0.503-0.14 0.736s-0.237 0.445-0.416 0.623zM12.309 9.557c-0.739-0.738-1.156-1.739-1.158-2.784-0.004-0.518 0.096-1.032 0.295-1.51s0.492-0.912 0.862-1.274c0.738-0.739 1.739-1.156 2.784-1.158 0.518-0.004 1.032 0.096 1.51 0.295s0.912 0.492 1.274 0.862c0.55 0.551 0.925 1.253 1.077 2.017s0.074 1.556-0.224 2.275c-0.298 0.72-0.802 1.335-1.45 1.768s-1.408 0.665-2.187 0.666c-0.518 0.004-1.031-0.097-1.51-0.296s-0.911-0.492-1.274-0.863zM21.506 28.822c-0.573 0.571-1.35 0.891-2.159 0.889-0.401 0.003-0.799-0.075-1.17-0.228s-0.708-0.378-0.99-0.663c-0.283-0.284-0.508-0.621-0.661-0.991s-0.231-0.768-0.231-1.169c-0.003-0.401 0.075-0.799 0.228-1.17s0.379-0.708 0.664-0.99c0.284-0.283 0.621-0.507 0.992-0.659s0.768-0.23 1.169-0.229c0.401-0.003 0.799 0.075 1.17 0.228s0.708 0.379 0.99 0.664c0.567 0.576 0.885 1.352 0.885 2.16s-0.318 1.584-0.885 2.16l-0.001-0.001z"></path>
</symbol>
<symbol id="icon-down" viewBox="0 0 23 32">
<path d="M11.428-0c-0.303 0-0.594 0.12-0.808 0.335s-0.335 0.505-0.335 0.808v26.956l-7.191-7.193c-0.215-0.215-0.506-0.335-0.809-0.335s-0.595 0.121-0.809 0.335c-0.215 0.215-0.335 0.506-0.335 0.809s0.121 0.595 0.335 0.809l9.143 9.143c0.106 0.106 0.232 0.191 0.371 0.248s0.288 0.087 0.438 0.087c0.15 0 0.299-0.030 0.438-0.087s0.265-0.142 0.371-0.248l9.143-9.143c0.106-0.106 0.191-0.232 0.248-0.371s0.087-0.288 0.087-0.438c0-0.303-0.121-0.595-0.335-0.809s-0.506-0.335-0.809-0.335c-0.303 0-0.595 0.121-0.809 0.335l-7.191 7.193v-26.956c0-0.303-0.12-0.594-0.335-0.808s-0.505-0.335-0.808-0.335z"></path>
</symbol>
</defs>
</svg>
